<?xml version="1.0" encoding="UTF-8"?>
<svg id="transpaternt_layer_thing" data-name="transpaternt layer thing" xmlns="http://www.w3.org/2000/svg" viewBox="0 0 792 612">
  <defs>
    <style>
      .cls-1 {
        fill: #f6c5b0;
      }

      .cls-2 {
        fill: #fff3ee;
      }
    </style>
  </defs>
  <path class="cls-1" d="m101.97,205.53c7.98,5.13,2.28,14.03,2.28,14.03l-13.24,19.84c-1.82,13.34,10.99,7.47,10.99,7.47l93.99-28.89,18.04-5.55,551.3-5.81v70.44s-663.7,5.04-663.7,5.04c-26.7,2.65-39.49-3.68-39.49-3.68,0,0-36.46-15.06-35.45-38.33,1.01-23.27,35.45-34.55,35.45-34.55,0,0,31.84-5.13,39.83,0Z"/>
  <path class="cls-2" d="m101.97,196.68c7.98,5.13,2.28,14.03,2.28,14.03l-13.24,19.84c-1.82,13.34,10.99,7.47,10.99,7.47l93.99-28.89,18.04-5.55,551.3-5.81v70.44s-663.7,5.04-663.7,5.04c-26.7,2.65-39.49-3.68-39.49-3.68,0,0-36.46-15.06-35.45-38.33,1.01-23.27,35.45-34.55,35.45-34.55,0,0,31.84-5.13,39.83,0Z"/>
  <path class="cls-1" d="m690.03,415.32c-7.98-5.13-2.28-14.03-2.28-14.03l13.24-19.84c1.82-13.34-10.99-7.47-10.99-7.47l-93.99,28.89-18.04,5.55-551.3,5.81v-70.44s663.7-5.04,663.7-5.04c26.7-2.65,39.49,3.68,39.49,3.68,0,0,36.46,15.06,35.45,38.33-1.01,23.27-35.45,34.55-35.45,34.55,0,0-31.84,5.13-39.83,0Z"/>
  <path class="cls-2" d="m690.03,407.37c-7.98-5.13-2.28-14.03-2.28-14.03l13.24-19.84c1.82-13.34-10.99-7.47-10.99-7.47l-93.99,28.89-18.04,5.55-551.3,5.81v-70.44s663.7-5.04,663.7-5.04c26.7-2.65,39.49,3.68,39.49,3.68,0,0,36.46,15.06,35.45,38.33-1.01,23.27-35.45,34.55-35.45,34.55,0,0-31.84,5.13-39.83,0Z"/>
</svg>