<?xml version="1.0" encoding="UTF-8"?>
<svg id="logo_" data-name="logo?" xmlns="http://www.w3.org/2000/svg" viewBox="0 0 432 432">
  <defs>
    <style>
      .cls-1 {
        fill: #fff3ee;
      }

      .cls-2 {
        fill: #c2714e;
      }
    </style>
  </defs>
  <rect class="cls-2" width="432" height="432"/>
  <path class="cls-1" d="m381.21,300.93c-46.92,91.25-158.9,127.19-250.14,80.28-3.29-1.69-6.5-3.46-9.62-5.32l30.99-60.56,4-22.5,20.92-117.2s.77-17.03,14.14-7.7l14.03,25.23s6.44,11.06,16.37,5.32c9.95-5.77,22.06-42.9,22.06-42.9,0,0,6.91-43.33-17.59-57.3-24.5-13.98-60.89,16.96-60.89,16.96,0,0-13.91,10.26-25.83,40.48l-81.43,158.39c-33.27-53.6-38.38-122.84-7.43-183.05C97.71,39.82,209.69,3.88,300.95,50.8c3.27,1.68,6.5,3.46,9.62,5.32l-32.52,63.54-4.02,22.49-20.92,117.2s-.77,17.03-14.14,7.7l-14.03-25.23s-6.43-11.06-16.37-5.32c-9.95,5.77-22.06,42.9-22.06,42.9,0,0-6.91,43.33,17.59,57.3,24.5,13.98,60.89-16.96,60.89-16.96,0,0,13.91-10.26,25.83-40.48l82.96-161.36c33.27,53.6,38.38,122.84,7.44,183.03Z"/>
</svg>